<svg version="1" xmlns="http://www.w3.org/2000/svg" width="682.667" height="682.667" viewBox="0 0 512.000000 512.000000"><path d="M0 256v256h512V0H0v256zM189 64.6c21.1 4 38.2 15.1 45.5 29.4 4.5 8.8 5.7 15.3 5.4 27.4-.4 10.2-.7 11.7-3.7 17.8-4.1 8.5-10.5 14.2-18 16.4-10.4 3.1-22.6-.1-30-7.8l-3.2-3.4 3.1-3c10.8-10.2 15.7-27.2 11.9-41.4-1.6-6-8.8-13.5-15-15.5-5.1-1.7-15.5-2.1-20.6-.9-18.1 4.4-29.7 24.6-26.5 46.3 2.3 15.8 11.3 29.1 42.1 63.1 20.9 23 28.3 33.1 35.7 48.6 6.8 14.4 8.6 22.4 8.6 38.9 0 16.4-1.7 24.5-8.2 37.2-11.3 22.5-32.7 40-59.6 48.8-25 8.1-59.5 7.4-81.2-1.8-33.2-14-49.4-46.2-40.7-80.6 5.5-21.8 23.1-40 42.4-44.2 8.4-1.8 21.6-.7 28.3 2.4 9.1 4.2 17.6 14.5 17.7 21.4 0 2-.5 2.3-4.3 2.3-9.9 0-23 5.3-29.7 12-16.2 16.2-14 47.4 4.3 59.5 16.9 11.2 43.8 7.2 58.1-8.6 8.6-9.6 12.6-20.6 12.6-34.9-.1-21-8.3-37-35.6-69.4-18.6-22-26.3-31.7-33.6-42.6-10.9-16.3-14.3-25.5-15.4-41.7-2.4-36.8 26-68 68.9-75.8 10.2-1.9 30.8-1.8 40.7.1zm289 1.6c0 1.2-56.3 268.3-60.6 287.3-6.6 29.6-19 55-33.9 70-13.3 13.2-30.7 20.9-53.6 23.6-12.5 1.4-30.3.7-37.9-1.7-18.9-5.7-31.7-18.7-36.4-37.1-2-7.7-2.1-24.9-.1-32.3 4-15 13.7-27.5 26.3-33.7l7.6-3.8h15.1c13 0 15.9.3 21.6 2.3C337 344.6 342 352 342 364.6c0 5.9-1.8 15.4-2.9 15.4-.4 0-2.5-1.4-4.8-3-5.7-4.2-11.7-6.1-19.4-6.1-8.7 0-13.9 2.2-19.3 8.2-5.3 5.9-7.6 12.1-7.6 20.7s1.6 13.5 6.1 18.6c5.3 6 12.1 8.8 21.5 8.7 16.8-.1 24.5-7.8 32.3-32.6 2.9-9.3 67.3-299.6 66.6-300.3-.7-.7-10 4-16.6 8.3-18.8 12.6-31.4 31.5-36.4 55-1.2 5.3-1.8 12.8-1.8 22-.1 13.7.4 17.1 3.8 24.9l1.7 3.9-7.4-.6c-16.6-1.3-28-7.9-32.8-18.9-3.2-7.2-4-25.3-1.6-34.8 10.1-39.8 62.4-79.1 116.1-87.4 11.5-1.8 38.5-2.1 38.5-.4z"/></svg>