<svg width="386.9" height="96.201" viewBox="0 0 386.9 96.201" xmlns="http://www.w3.org/2000/svg"><g id="svgGroup" stroke-linecap="round" fill="white" style="fill:white"><path d="M 15.524 76.817 A 30.759 30.759 0 0 0 21.1 77.301 A 35.861 35.861 0 0 0 23.639 77.212 A 29.923 29.923 0 0 0 34.75 74.301 A 28.935 28.935 0 0 0 36.293 73.491 A 23.962 23.962 0 0 0 44.45 66.101 Q 48 60.901 48 54.501 A 24.925 24.925 0 0 0 47.994 53.916 A 21.667 21.667 0 0 0 46.25 45.751 A 36.126 36.126 0 0 0 45.211 43.548 A 30.345 30.345 0 0 0 42.05 38.601 A 67.321 67.321 0 0 0 41.931 38.45 Q 39.504 35.397 35.6 31.201 Q 30.7 25.801 28.4 22.351 Q 26.1 18.901 26.1 14.901 A 13.495 13.495 0 0 1 26.24 12.923 A 9.888 9.888 0 0 1 28.65 7.651 A 8.319 8.319 0 0 1 31.821 5.406 A 9.136 9.136 0 0 1 35.2 4.801 Q 38.5 4.801 40.4 6.701 A 6.237 6.237 0 0 1 42.035 9.589 A 8.715 8.715 0 0 1 42.3 11.801 Q 42.3 14.301 41.2 16.601 A 11.329 11.329 0 0 1 40.913 17.162 A 9.528 9.528 0 0 1 38.2 20.301 A 9.551 9.551 0 0 0 38.369 20.521 Q 39.498 21.953 40.971 22.673 A 7.483 7.483 0 0 0 44.3 23.401 A 8.407 8.407 0 0 0 44.978 23.374 A 6.663 6.663 0 0 0 49.8 20.801 A 8.457 8.457 0 0 0 50.116 20.384 Q 51.176 18.891 51.607 16.919 A 13.689 13.689 0 0 0 51.9 14.001 A 15.836 15.836 0 0 0 51.842 12.629 A 12.109 12.109 0 0 0 47.05 3.801 A 15.536 15.536 0 0 0 44.965 2.424 Q 42.526 1.079 39.448 0.481 A 28.025 28.025 0 0 0 34.1 0.001 A 31.431 31.431 0 0 0 30.58 0.193 A 25.24 25.24 0 0 0 22.6 2.401 A 23.529 23.529 0 0 0 20.474 3.534 A 19.033 19.033 0 0 0 14.6 8.951 Q 11.7 13.101 11.7 18.301 Q 11.7 23.601 14.45 28.051 A 53.85 53.85 0 0 0 16.654 31.317 Q 19.057 34.632 22.6 38.701 A 158.468 158.468 0 0 1 22.83 38.966 Q 26.251 42.931 28.521 46.1 A 50.286 50.286 0 0 1 30.4 48.901 Q 33 53.101 33 57.801 A 16.067 16.067 0 0 1 32.965 58.878 A 12.082 12.082 0 0 1 29.55 66.751 A 11.343 11.343 0 0 1 25.224 69.572 A 12.954 12.954 0 0 1 20.8 70.301 Q 16.5 70.301 13.9 67.701 A 8.527 8.527 0 0 1 11.681 63.844 A 11.537 11.537 0 0 1 11.3 60.801 A 12.841 12.841 0 0 1 11.394 59.226 A 9.055 9.055 0 0 1 14.4 53.351 Q 16.386 51.589 19.234 50.956 A 15.965 15.965 0 0 1 22.7 50.601 Q 22.1 47.501 19.7 45.751 A 8.794 8.794 0 0 0 16.605 44.324 A 11.611 11.611 0 0 0 13.8 44.001 Q 10 44.001 6.85 46.101 A 14.279 14.279 0 0 0 5.009 47.56 A 15.367 15.367 0 0 0 1.85 51.801 A 16.23 16.23 0 0 0 0.76 54.491 A 18.113 18.113 0 0 0 0 59.801 Q 0 65.001 2.6 68.951 A 15.92 15.92 0 0 0 5.535 72.281 A 18.83 18.83 0 0 0 10 75.101 A 23.36 23.36 0 0 0 15.524 76.817 Z" id="0" vector-effect="non-scaling-stroke"/><path d="M 92 57.601 L 95.4 57.601 A 51.435 51.435 0 0 1 88.737 66.543 Q 84.001 71.546 78.514 73.93 A 26.345 26.345 0 0 1 67.9 76.101 A 22.853 22.853 0 0 1 63.301 75.666 Q 59.123 74.807 56.4 72.251 A 11.796 11.796 0 0 1 53.39 67.5 Q 52.711 65.587 52.455 63.224 A 28.096 28.096 0 0 1 52.3 60.201 Q 52.3 53.732 54.673 46.033 A 69.739 69.739 0 0 1 55 45.001 Q 57.7 36.701 63.8 30.651 A 20.641 20.641 0 0 1 77.284 24.673 A 27.62 27.62 0 0 1 79.3 24.601 A 18.339 18.339 0 0 1 83.452 25.028 Q 90.3 26.626 90.3 34.201 Q 90.3 39.801 87.1 44.501 A 23.524 23.524 0 0 1 78.93 51.871 A 27.397 27.397 0 0 1 78.6 52.051 Q 73.3 54.901 67.3 55.301 Q 67.128 57.889 67.104 58.988 A 14.663 14.663 0 0 0 67.1 59.301 A 22.107 22.107 0 0 0 67.203 61.522 Q 67.428 63.736 68.142 65.042 A 4.153 4.153 0 0 0 68.8 65.951 A 5.066 5.066 0 0 0 70.669 67.139 Q 72.148 67.701 74.3 67.701 A 19.48 19.48 0 0 0 78.876 67.187 A 14.942 14.942 0 0 0 83.55 65.201 Q 86.348 63.384 89.541 60.195 A 68.658 68.658 0 0 0 92 57.601 Z M 68.1 50.501 Q 71.8 50.301 75.15 47.901 Q 78.5 45.501 80.55 41.801 Q 82.6 38.101 82.6 34.001 Q 82.6 29.901 80.1 29.901 A 4.792 4.792 0 0 0 77.421 30.787 Q 75.207 32.263 73.05 36.201 A 45.223 45.223 0 0 0 69.228 45.667 A 55.223 55.223 0 0 0 68.1 50.501 Z" id="1" vector-effect="non-scaling-stroke"/><path d="M 92 57.601 L 102.7 7.501 L 117.5 5.501 L 112.7 28.001 A 37.486 37.486 0 0 1 114.314 27.071 Q 115.865 26.232 117.03 25.838 A 9.457 9.457 0 0 1 117.3 25.751 Q 119.1 25.201 120.9 25.201 Q 130.747 25.201 132.377 37.108 A 38.441 38.441 0 0 1 132.7 42.301 A 41.002 41.002 0 0 1 131.862 50.364 A 54.319 54.319 0 0 1 130.05 57.051 Q 127.4 64.901 121.25 70.501 A 21.104 21.104 0 0 1 110.524 75.658 A 29.545 29.545 0 0 1 105.3 76.101 Q 98.5 76.101 94.9 72.751 A 10.922 10.922 0 0 1 91.707 67.089 A 16.64 16.64 0 0 1 91.3 63.301 A 23.093 23.093 0 0 1 91.762 58.624 A 20.93 20.93 0 0 1 92 57.601 Z M 111.4 34.101 L 105.9 59.501 A 10.141 10.141 0 0 0 105.643 60.962 A 8.523 8.523 0 0 0 105.6 61.801 Q 105.6 66.401 110.9 66.401 Q 114 66.401 116.7 62.551 Q 119.232 58.941 120.796 53.662 A 44.324 44.324 0 0 0 121 52.951 Q 122.6 47.201 122.6 41.901 A 19.105 19.105 0 0 0 122.369 38.849 Q 122.032 36.763 121.2 35.101 Q 119.8 32.301 117.3 32.301 Q 115.8 32.301 113.95 32.751 A 8.135 8.135 0 0 0 113.001 33.039 Q 111.993 33.42 111.486 33.997 A 2.259 2.259 0 0 0 111.4 34.101 Z" id="2" vector-effect="non-scaling-stroke"/><path d="M 184.5 78.901 L 200.2 7.501 Q 193.5 10.201 189.8 15.801 A 21.961 21.961 0 0 0 186.548 24.128 A 29.82 29.82 0 0 0 186.1 29.401 A 30.841 30.841 0 0 0 186.144 31.11 Q 186.275 33.463 186.8 34.551 A 50.196 50.196 0 0 1 186.964 34.894 Q 187.393 35.799 187.479 36.092 A 0.434 0.434 0 0 1 187.5 36.201 A 20.861 20.861 0 0 1 184.68 36.023 Q 183.226 35.824 182.043 35.402 A 8.223 8.223 0 0 1 179.45 33.951 A 6.745 6.745 0 0 1 177.526 31.136 Q 177.096 30.002 176.921 28.583 A 17.01 17.01 0 0 1 176.8 26.501 A 16.53 16.53 0 0 1 178.75 18.831 Q 180 16.414 182.05 14.051 Q 187.3 8.001 195.5 4.251 A 41.466 41.466 0 0 1 205.75 1.028 A 36.323 36.323 0 0 1 211.9 0.501 L 215.9 0.501 L 200.9 71.501 A 55.993 55.993 0 0 1 198.828 78.916 Q 197.463 82.7 195.639 85.66 A 25.279 25.279 0 0 1 192.3 90.001 A 19.075 19.075 0 0 1 184.042 94.925 Q 181.006 95.862 177.337 96.111 A 40.451 40.451 0 0 1 174.6 96.201 A 21.037 21.037 0 0 1 170.291 95.786 Q 167.599 95.222 165.554 93.892 A 11.724 11.724 0 0 1 163.65 92.351 A 12.901 12.901 0 0 1 160.056 85.231 A 18.371 18.371 0 0 1 159.8 82.101 Q 159.8 76.701 163.1 72.701 A 10.734 10.734 0 0 1 170.971 68.736 A 14.821 14.821 0 0 1 172 68.701 A 24.308 24.308 0 0 1 174.891 68.862 Q 176.315 69.033 177.514 69.385 A 11.591 11.591 0 0 1 179.05 69.951 Q 181.513 71.07 181.77 74.556 A 11.491 11.491 0 0 1 181.8 75.401 A 12.792 12.792 0 0 1 181.655 77.269 Q 181.524 78.157 181.274 79.123 A 21.466 21.466 0 0 1 181.2 79.401 Q 179.4 77.901 178.1 77.351 A 6.973 6.973 0 0 0 176.1 76.847 A 8.611 8.611 0 0 0 175.2 76.801 A 7.962 7.962 0 0 0 173.016 77.085 A 5.899 5.899 0 0 0 170.05 79.001 Q 168.2 81.201 168.2 84.201 A 9.298 9.298 0 0 0 168.405 86.217 Q 168.705 87.565 169.442 88.549 A 5.342 5.342 0 0 0 170.3 89.451 A 7.505 7.505 0 0 0 172.877 90.883 A 7.085 7.085 0 0 0 175 91.201 A 10.083 10.083 0 0 0 176.827 91.044 Q 178.071 90.815 179.05 90.251 Q 180.7 89.301 182 86.651 Q 183.175 84.257 184.267 79.864 A 78.035 78.035 0 0 0 184.5 78.901 Z" id="4" vector-effect="non-scaling-stroke"/><path d="M 250.5 40.601 L 250.5 40.701 Q 250.79 40.797 251.546 40.8 A 12.398 12.398 0 0 0 251.6 40.801 A 15.135 15.135 0 0 0 254.447 40.512 Q 256.647 40.09 259.2 39.051 A 38.889 38.889 0 0 0 265.546 35.785 A 34.975 34.975 0 0 0 267 34.801 L 267.9 37.501 A 21.167 21.167 0 0 1 264.084 40.687 A 28.355 28.355 0 0 1 260.35 42.751 A 38.171 38.171 0 0 1 252.233 45.419 A 43.914 43.914 0 0 1 250.2 45.801 A 52.831 52.831 0 0 1 248.839 54.077 A 39.511 39.511 0 0 1 246.1 61.701 A 31.452 31.452 0 0 1 242.589 67.394 A 24.062 24.062 0 0 1 237.6 72.201 Q 232.4 75.901 226.3 75.901 Q 220.266 75.901 216.293 73.374 A 13.461 13.461 0 0 1 214.6 72.101 A 11.664 11.664 0 0 1 211.342 67.107 Q 210.667 65.181 210.429 62.807 A 27.212 27.212 0 0 1 210.3 60.101 Q 210.3 53.978 212.57 46.639 A 67.864 67.864 0 0 1 213.1 45.001 Q 215.9 36.701 222.1 30.651 Q 228.3 24.601 237.7 24.601 Q 249.246 24.601 250.378 37.619 A 34.488 34.488 0 0 1 250.5 40.601 Z M 233.968 65.295 A 12.04 12.04 0 0 0 235.1 64.151 A 18.443 18.443 0 0 0 237.019 61.474 Q 237.853 60.078 238.596 58.381 A 37.013 37.013 0 0 0 239.3 56.651 Q 241.1 51.901 241.9 46.101 A 3.084 3.084 0 0 1 239.549 44.101 Q 239.2 43.194 239.2 41.901 Q 239.2 37.801 242.3 36.501 Q 242.1 33.201 241.3 31.951 A 2.544 2.544 0 0 0 239.856 30.884 Q 239.266 30.701 238.5 30.701 A 5.11 5.11 0 0 0 235.752 31.555 Q 234.085 32.604 232.473 34.942 A 22.136 22.136 0 0 0 232.1 35.501 A 36.934 36.934 0 0 0 229.145 41.137 A 49.916 49.916 0 0 0 227.1 47.001 A 58.874 58.874 0 0 0 225.943 51.801 Q 225.456 54.303 225.288 56.535 A 30.311 30.311 0 0 0 225.2 58.801 A 32.944 32.944 0 0 0 225.261 60.878 Q 225.455 63.943 226.276 65.214 A 3.005 3.005 0 0 0 226.3 65.251 Q 227.207 66.611 229.336 66.85 A 8.651 8.651 0 0 0 230.3 66.901 Q 232.134 66.901 233.968 65.295 Z" id="5" vector-effect="non-scaling-stroke"/><path d="M 273 43.401 L 266.2 75.501 L 251.8 75.501 L 262.4 25.501 L 276.8 25.501 L 275.7 30.701 A 18.22 18.22 0 0 1 279.866 27.18 A 14.331 14.331 0 0 1 287.4 25.101 A 15.036 15.036 0 0 1 290.795 25.462 Q 293.513 26.092 295.41 27.817 A 9.662 9.662 0 0 1 295.5 27.901 A 8.761 8.761 0 0 1 297.83 31.66 Q 298.5 33.706 298.5 36.401 Q 298.5 39.21 297.843 42.629 A 46.208 46.208 0 0 1 297.8 42.851 Q 297.1 46.401 295.8 51.501 A 175.423 175.423 0 0 0 294.432 57.181 A 160.665 160.665 0 0 0 294.35 57.551 A 40.513 40.513 0 0 0 294.022 59.192 Q 293.746 60.749 293.707 61.851 A 9.904 9.904 0 0 0 293.7 62.201 A 7.151 7.151 0 0 0 293.795 63.403 Q 293.992 64.557 294.6 65.301 A 2.646 2.646 0 0 0 295.683 66.072 Q 296.135 66.254 296.706 66.335 A 7.079 7.079 0 0 0 297.7 66.401 A 6.758 6.758 0 0 0 299.979 66.032 A 5.773 5.773 0 0 0 302.5 64.251 Q 304.3 62.101 306.1 57.601 L 310.3 57.601 A 62.897 62.897 0 0 1 308.254 62.933 Q 305.951 68.149 303.269 70.969 A 13.496 13.496 0 0 1 301.75 72.351 A 19.501 19.501 0 0 1 297.596 74.847 A 14.682 14.682 0 0 1 291.7 76.101 A 18.094 18.094 0 0 1 288.365 75.814 Q 284.754 75.136 282.75 72.851 Q 279.9 69.601 279.9 64.801 A 21.173 21.173 0 0 1 280.01 62.711 Q 280.135 61.458 280.4 60.051 Q 280.9 57.401 281.45 54.901 Q 281.984 52.476 282.188 51.745 A 7.505 7.505 0 0 1 282.2 51.701 Q 283 48.201 283.7 44.801 A 46.699 46.699 0 0 0 284.07 42.803 Q 284.4 40.744 284.4 39.301 A 10.701 10.701 0 0 0 284.263 37.503 Q 283.713 34.294 280.962 34.203 A 4.913 4.913 0 0 0 280.8 34.201 Q 278.2 34.201 276.2 36.751 A 15.743 15.743 0 0 0 274.501 39.482 Q 273.827 40.842 273.29 42.469 A 28.812 28.812 0 0 0 273 43.401 Z" id="6" vector-effect="non-scaling-stroke"/><path d="M 344.5 57.601 L 347.9 57.601 A 51.435 51.435 0 0 1 341.237 66.543 Q 336.501 71.546 331.014 73.93 A 26.345 26.345 0 0 1 320.4 76.101 A 22.853 22.853 0 0 1 315.801 75.666 Q 311.623 74.807 308.9 72.251 A 11.796 11.796 0 0 1 305.89 67.5 Q 305.211 65.587 304.955 63.224 A 28.096 28.096 0 0 1 304.8 60.201 Q 304.8 53.732 307.173 46.033 A 69.739 69.739 0 0 1 307.5 45.001 Q 310.2 36.701 316.3 30.651 A 20.641 20.641 0 0 1 329.784 24.673 A 27.62 27.62 0 0 1 331.8 24.601 A 18.339 18.339 0 0 1 335.952 25.028 Q 342.8 26.626 342.8 34.201 Q 342.8 39.801 339.6 44.501 A 23.524 23.524 0 0 1 331.43 51.871 A 27.397 27.397 0 0 1 331.1 52.051 Q 325.8 54.901 319.8 55.301 Q 319.628 57.889 319.604 58.988 A 14.663 14.663 0 0 0 319.6 59.301 A 22.107 22.107 0 0 0 319.703 61.522 Q 319.928 63.736 320.642 65.042 A 4.153 4.153 0 0 0 321.3 65.951 A 5.066 5.066 0 0 0 323.169 67.139 Q 324.648 67.701 326.8 67.701 A 19.48 19.48 0 0 0 331.376 67.187 A 14.942 14.942 0 0 0 336.05 65.201 Q 338.848 63.384 342.041 60.195 A 68.658 68.658 0 0 0 344.5 57.601 Z M 320.6 50.501 Q 324.3 50.301 327.65 47.901 Q 331 45.501 333.05 41.801 Q 335.1 38.101 335.1 34.001 Q 335.1 29.901 332.6 29.901 A 4.792 4.792 0 0 0 329.921 30.787 Q 327.707 32.263 325.55 36.201 A 45.223 45.223 0 0 0 321.728 45.667 A 55.223 55.223 0 0 0 320.6 50.501 Z" id="7" vector-effect="non-scaling-stroke"/><path d="M 358.9 24.401 L 373.7 22.401 Q 374.2 35.201 375.4 50.101 A 260.452 260.452 0 0 1 375.619 52.894 Q 375.9 56.776 375.9 58.801 A 21.814 21.814 0 0 1 375.849 60.35 Q 375.797 61.076 375.693 61.697 A 9.734 9.734 0 0 1 375.5 62.601 A 64.999 64.999 0 0 0 378.223 60.952 Q 380.982 59.182 382.7 57.601 L 386.9 57.601 Q 380.5 65.001 371.6 70.101 A 17.165 17.165 0 0 1 364.715 74.558 A 20.036 20.036 0 0 1 364.45 74.651 Q 360.2 76.101 355.9 76.101 Q 351.1 76.101 347.8 74.251 A 13.496 13.496 0 0 1 344.868 72.069 A 11.2 11.2 0 0 1 342.9 69.451 Q 341.3 66.501 341.3 63.301 A 11.838 11.838 0 0 1 341.682 60.236 A 9.646 9.646 0 0 1 342.85 57.551 A 11.095 11.095 0 0 1 344.417 55.579 A 8.517 8.517 0 0 1 346.6 54.001 Q 350.5 47.001 353.4 39.851 A 187.992 187.992 0 0 0 356.908 30.464 A 224.875 224.875 0 0 0 358.9 24.401 Z M 352.7 68.201 A 10.266 10.266 0 0 0 355.807 67.749 A 8.517 8.517 0 0 0 358.9 66.001 Q 361.4 63.801 361.4 58.901 Q 361.4 55.901 360.8 50.501 A 4983.323 4983.323 0 0 1 360.396 45.872 Q 359.735 38.247 359.5 35.201 Q 357.1 43.101 351.4 54.101 A 5.124 5.124 0 0 1 352.588 54.934 A 3.544 3.544 0 0 1 353.7 57.601 Q 353.7 59.501 352.45 61.001 A 4.23 4.23 0 0 1 351.16 62.065 A 3.958 3.958 0 0 1 349.3 62.501 A 5.203 5.203 0 0 1 348.358 62.422 Q 347.858 62.33 347.484 62.129 A 1.966 1.966 0 0 1 346.6 61.201 A 14.258 14.258 0 0 0 346.715 63.075 Q 347.008 65.279 348.05 66.501 A 4.44 4.44 0 0 0 350.002 67.798 Q 351.144 68.201 352.7 68.201 Z" id="8" vector-effect="non-scaling-stroke"/></g></svg>
